<svg xmlns="http://www.w3.org/2000/svg" viewBox="0 0 1200 750">
<rect width="1200" height="750" fill="#0a1030"/>
<circle cx="600.0" cy="375.0" r="560" fill="#4f46e5" opacity="0.1"/>
<circle cx="600.0" cy="375.0" r="380" fill="#4f46e5" opacity="0.12"/>
<circle cx="600.0" cy="375.0" r="210" fill="#4f46e5" opacity="0.14"/>
<line x1="170" y1="110" x2="470" y2="110" stroke="#818cf8" stroke-width="1.3" opacity="0.241"/>
<line x1="170" y1="110" x2="470" y2="216" stroke="#818cf8" stroke-width="1.3" opacity="0.224"/>
<line x1="170" y1="110" x2="470" y2="322" stroke="#818cf8" stroke-width="1.3" opacity="0.246"/>
<line x1="170" y1="110" x2="470" y2="428" stroke="#7dd3fc" stroke-width="2.2" opacity="0.363"/>
<line x1="170" y1="110" x2="470" y2="534" stroke="#818cf8" stroke-width="1.3" opacity="0.283"/>
<line x1="170" y1="110" x2="470" y2="640" stroke="#7dd3fc" stroke-width="2.2" opacity="0.305"/>
<line x1="170" y1="287" x2="470" y2="110" stroke="#7dd3fc" stroke-width="2.2" opacity="0.447"/>
<line x1="170" y1="287" x2="470" y2="216" stroke="#818cf8" stroke-width="1.3" opacity="0.148"/>
<line x1="170" y1="287" x2="470" y2="322" stroke="#818cf8" stroke-width="1.3" opacity="0.314"/>
<line x1="170" y1="287" x2="470" y2="428" stroke="#818cf8" stroke-width="1.3" opacity="0.251"/>
<line x1="170" y1="287" x2="470" y2="534" stroke="#7dd3fc" stroke-width="2.2" opacity="0.224"/>
<line x1="170" y1="287" x2="470" y2="640" stroke="#818cf8" stroke-width="1.3" opacity="0.151"/>
<line x1="170" y1="463" x2="470" y2="110" stroke="#7dd3fc" stroke-width="2.2" opacity="0.288"/>
<line x1="170" y1="463" x2="470" y2="216" stroke="#7dd3fc" stroke-width="2.2" opacity="0.35"/>
<line x1="170" y1="463" x2="470" y2="322" stroke="#818cf8" stroke-width="1.3" opacity="0.292"/>
<line x1="170" y1="463" x2="470" y2="428" stroke="#818cf8" stroke-width="1.3" opacity="0.255"/>
<line x1="170" y1="463" x2="470" y2="534" stroke="#818cf8" stroke-width="1.3" opacity="0.259"/>
<line x1="170" y1="463" x2="470" y2="640" stroke="#818cf8" stroke-width="1.3" opacity="0.19"/>
<line x1="170" y1="640" x2="470" y2="110" stroke="#818cf8" stroke-width="1.3" opacity="0.319"/>
<line x1="170" y1="640" x2="470" y2="216" stroke="#818cf8" stroke-width="1.3" opacity="0.267"/>
<line x1="170" y1="640" x2="470" y2="322" stroke="#818cf8" stroke-width="1.3" opacity="0.181"/>
<line x1="170" y1="640" x2="470" y2="428" stroke="#818cf8" stroke-width="1.3" opacity="0.153"/>
<line x1="170" y1="640" x2="470" y2="534" stroke="#818cf8" stroke-width="1.3" opacity="0.212"/>
<line x1="170" y1="640" x2="470" y2="640" stroke="#818cf8" stroke-width="1.3" opacity="0.21"/>
<line x1="470" y1="110" x2="770" y2="110" stroke="#818cf8" stroke-width="1.3" opacity="0.293"/>
<line x1="470" y1="110" x2="770" y2="216" stroke="#7dd3fc" stroke-width="2.2" opacity="0.279"/>
<line x1="470" y1="110" x2="770" y2="322" stroke="#818cf8" stroke-width="1.3" opacity="0.225"/>
<line x1="470" y1="110" x2="770" y2="428" stroke="#818cf8" stroke-width="1.3" opacity="0.212"/>
<line x1="470" y1="110" x2="770" y2="534" stroke="#7dd3fc" stroke-width="2.2" opacity="0.396"/>
<line x1="470" y1="110" x2="770" y2="640" stroke="#818cf8" stroke-width="1.3" opacity="0.189"/>
<line x1="470" y1="216" x2="770" y2="110" stroke="#7dd3fc" stroke-width="2.2" opacity="0.313"/>
<line x1="470" y1="216" x2="770" y2="216" stroke="#818cf8" stroke-width="1.3" opacity="0.276"/>
<line x1="470" y1="216" x2="770" y2="322" stroke="#7dd3fc" stroke-width="2.2" opacity="0.289"/>
<line x1="470" y1="216" x2="770" y2="428" stroke="#7dd3fc" stroke-width="2.2" opacity="0.237"/>
<line x1="470" y1="216" x2="770" y2="534" stroke="#818cf8" stroke-width="1.3" opacity="0.172"/>
<line x1="470" y1="216" x2="770" y2="640" stroke="#818cf8" stroke-width="1.3" opacity="0.221"/>
<line x1="470" y1="322" x2="770" y2="110" stroke="#7dd3fc" stroke-width="2.2" opacity="0.425"/>
<line x1="470" y1="322" x2="770" y2="216" stroke="#7dd3fc" stroke-width="2.2" opacity="0.4"/>
<line x1="470" y1="322" x2="770" y2="322" stroke="#7dd3fc" stroke-width="2.2" opacity="0.338"/>
<line x1="470" y1="322" x2="770" y2="428" stroke="#7dd3fc" stroke-width="2.2" opacity="0.296"/>
<line x1="470" y1="322" x2="770" y2="534" stroke="#818cf8" stroke-width="1.3" opacity="0.285"/>
<line x1="470" y1="322" x2="770" y2="640" stroke="#818cf8" stroke-width="1.3" opacity="0.299"/>
<line x1="470" y1="428" x2="770" y2="110" stroke="#7dd3fc" stroke-width="2.2" opacity="0.33"/>
<line x1="470" y1="428" x2="770" y2="216" stroke="#818cf8" stroke-width="1.3" opacity="0.256"/>
<line x1="470" y1="428" x2="770" y2="322" stroke="#7dd3fc" stroke-width="2.2" opacity="0.497"/>
<line x1="470" y1="428" x2="770" y2="428" stroke="#7dd3fc" stroke-width="2.2" opacity="0.292"/>
<line x1="470" y1="428" x2="770" y2="534" stroke="#818cf8" stroke-width="1.3" opacity="0.199"/>
<line x1="470" y1="428" x2="770" y2="640" stroke="#818cf8" stroke-width="1.3" opacity="0.153"/>
<line x1="470" y1="534" x2="770" y2="110" stroke="#7dd3fc" stroke-width="2.2" opacity="0.383"/>
<line x1="470" y1="534" x2="770" y2="216" stroke="#7dd3fc" stroke-width="2.2" opacity="0.388"/>
<line x1="470" y1="534" x2="770" y2="322" stroke="#818cf8" stroke-width="1.3" opacity="0.222"/>
<line x1="470" y1="534" x2="770" y2="428" stroke="#818cf8" stroke-width="1.3" opacity="0.227"/>
<line x1="470" y1="534" x2="770" y2="534" stroke="#818cf8" stroke-width="1.3" opacity="0.296"/>
<line x1="470" y1="534" x2="770" y2="640" stroke="#7dd3fc" stroke-width="2.2" opacity="0.263"/>
<line x1="470" y1="640" x2="770" y2="110" stroke="#818cf8" stroke-width="1.3" opacity="0.287"/>
<line x1="470" y1="640" x2="770" y2="216" stroke="#7dd3fc" stroke-width="2.2" opacity="0.273"/>
<line x1="470" y1="640" x2="770" y2="322" stroke="#818cf8" stroke-width="1.3" opacity="0.309"/>
<line x1="470" y1="640" x2="770" y2="428" stroke="#7dd3fc" stroke-width="2.2" opacity="0.486"/>
<line x1="470" y1="640" x2="770" y2="534" stroke="#818cf8" stroke-width="1.3" opacity="0.249"/>
<line x1="470" y1="640" x2="770" y2="640" stroke="#818cf8" stroke-width="1.3" opacity="0.159"/>
<line x1="770" y1="110" x2="1060" y2="110" stroke="#7dd3fc" stroke-width="2.2" opacity="0.49"/>
<line x1="770" y1="110" x2="1060" y2="375" stroke="#7dd3fc" stroke-width="2.2" opacity="0.417"/>
<line x1="770" y1="110" x2="1060" y2="640" stroke="#7dd3fc" stroke-width="2.2" opacity="0.451"/>
<line x1="770" y1="216" x2="1060" y2="110" stroke="#818cf8" stroke-width="1.3" opacity="0.193"/>
<line x1="770" y1="216" x2="1060" y2="375" stroke="#7dd3fc" stroke-width="2.2" opacity="0.422"/>
<line x1="770" y1="216" x2="1060" y2="640" stroke="#7dd3fc" stroke-width="2.2" opacity="0.284"/>
<line x1="770" y1="322" x2="1060" y2="110" stroke="#818cf8" stroke-width="1.3" opacity="0.293"/>
<line x1="770" y1="322" x2="1060" y2="375" stroke="#818cf8" stroke-width="1.3" opacity="0.19"/>
<line x1="770" y1="322" x2="1060" y2="640" stroke="#818cf8" stroke-width="1.3" opacity="0.177"/>
<line x1="770" y1="428" x2="1060" y2="110" stroke="#7dd3fc" stroke-width="2.2" opacity="0.295"/>
<line x1="770" y1="428" x2="1060" y2="375" stroke="#818cf8" stroke-width="1.3" opacity="0.151"/>
<line x1="770" y1="428" x2="1060" y2="640" stroke="#7dd3fc" stroke-width="2.2" opacity="0.323"/>
<line x1="770" y1="534" x2="1060" y2="110" stroke="#818cf8" stroke-width="1.3" opacity="0.164"/>
<line x1="770" y1="534" x2="1060" y2="375" stroke="#818cf8" stroke-width="1.3" opacity="0.3"/>
<line x1="770" y1="534" x2="1060" y2="640" stroke="#818cf8" stroke-width="1.3" opacity="0.258"/>
<line x1="770" y1="640" x2="1060" y2="110" stroke="#818cf8" stroke-width="1.3" opacity="0.245"/>
<line x1="770" y1="640" x2="1060" y2="375" stroke="#7dd3fc" stroke-width="2.2" opacity="0.23"/>
<line x1="770" y1="640" x2="1060" y2="640" stroke="#7dd3fc" stroke-width="2.2" opacity="0.475"/>
<circle cx="170" cy="110" r="34" fill="#a5b4fc" opacity="0.20"/>
<circle cx="170" cy="110" r="21" fill="#a5b4fc" opacity="0.45"/>
<circle cx="170" cy="110" r="12" fill="#a5b4fc" opacity="1"/>
<circle cx="170" cy="110" r="5.5" fill="#ffffff" opacity="0.95"/>
<circle cx="170" cy="287" r="34" fill="#a5b4fc" opacity="0.20"/>
<circle cx="170" cy="287" r="21" fill="#a5b4fc" opacity="0.45"/>
<circle cx="170" cy="287" r="12" fill="#a5b4fc" opacity="1"/>
<circle cx="170" cy="287" r="5.5" fill="#ffffff" opacity="0.95"/>
<circle cx="170" cy="463" r="34" fill="#a5b4fc" opacity="0.20"/>
<circle cx="170" cy="463" r="21" fill="#a5b4fc" opacity="0.45"/>
<circle cx="170" cy="463" r="12" fill="#a5b4fc" opacity="1"/>
<circle cx="170" cy="463" r="5.5" fill="#ffffff" opacity="0.95"/>
<circle cx="170" cy="640" r="34" fill="#a5b4fc" opacity="0.20"/>
<circle cx="170" cy="640" r="21" fill="#a5b4fc" opacity="0.45"/>
<circle cx="170" cy="640" r="12" fill="#a5b4fc" opacity="1"/>
<circle cx="170" cy="640" r="5.5" fill="#ffffff" opacity="0.95"/>
<circle cx="470" cy="110" r="34" fill="#c4b5fd" opacity="0.20"/>
<circle cx="470" cy="110" r="21" fill="#c4b5fd" opacity="0.45"/>
<circle cx="470" cy="110" r="12" fill="#c4b5fd" opacity="1"/>
<circle cx="470" cy="110" r="5.5" fill="#ffffff" opacity="0.95"/>
<circle cx="470" cy="216" r="34" fill="#c4b5fd" opacity="0.20"/>
<circle cx="470" cy="216" r="21" fill="#c4b5fd" opacity="0.45"/>
<circle cx="470" cy="216" r="12" fill="#c4b5fd" opacity="1"/>
<circle cx="470" cy="216" r="5.5" fill="#ffffff" opacity="0.95"/>
<circle cx="470" cy="322" r="34" fill="#c4b5fd" opacity="0.20"/>
<circle cx="470" cy="322" r="21" fill="#c4b5fd" opacity="0.45"/>
<circle cx="470" cy="322" r="12" fill="#c4b5fd" opacity="1"/>
<circle cx="470" cy="322" r="5.5" fill="#ffffff" opacity="0.95"/>
<circle cx="470" cy="428" r="34" fill="#c4b5fd" opacity="0.20"/>
<circle cx="470" cy="428" r="21" fill="#c4b5fd" opacity="0.45"/>
<circle cx="470" cy="428" r="12" fill="#c4b5fd" opacity="1"/>
<circle cx="470" cy="428" r="5.5" fill="#ffffff" opacity="0.95"/>
<circle cx="470" cy="534" r="34" fill="#c4b5fd" opacity="0.20"/>
<circle cx="470" cy="534" r="21" fill="#c4b5fd" opacity="0.45"/>
<circle cx="470" cy="534" r="12" fill="#c4b5fd" opacity="1"/>
<circle cx="470" cy="534" r="5.5" fill="#ffffff" opacity="0.95"/>
<circle cx="470" cy="640" r="34" fill="#c4b5fd" opacity="0.20"/>
<circle cx="470" cy="640" r="21" fill="#c4b5fd" opacity="0.45"/>
<circle cx="470" cy="640" r="12" fill="#c4b5fd" opacity="1"/>
<circle cx="470" cy="640" r="5.5" fill="#ffffff" opacity="0.95"/>
<circle cx="770" cy="110" r="34" fill="#e0aaff" opacity="0.20"/>
<circle cx="770" cy="110" r="21" fill="#e0aaff" opacity="0.45"/>
<circle cx="770" cy="110" r="12" fill="#e0aaff" opacity="1"/>
<circle cx="770" cy="110" r="5.5" fill="#ffffff" opacity="0.95"/>
<circle cx="770" cy="216" r="34" fill="#e0aaff" opacity="0.20"/>
<circle cx="770" cy="216" r="21" fill="#e0aaff" opacity="0.45"/>
<circle cx="770" cy="216" r="12" fill="#e0aaff" opacity="1"/>
<circle cx="770" cy="216" r="5.5" fill="#ffffff" opacity="0.95"/>
<circle cx="770" cy="322" r="34" fill="#e0aaff" opacity="0.20"/>
<circle cx="770" cy="322" r="21" fill="#e0aaff" opacity="0.45"/>
<circle cx="770" cy="322" r="12" fill="#e0aaff" opacity="1"/>
<circle cx="770" cy="322" r="5.5" fill="#ffffff" opacity="0.95"/>
<circle cx="770" cy="428" r="34" fill="#e0aaff" opacity="0.20"/>
<circle cx="770" cy="428" r="21" fill="#e0aaff" opacity="0.45"/>
<circle cx="770" cy="428" r="12" fill="#e0aaff" opacity="1"/>
<circle cx="770" cy="428" r="5.5" fill="#ffffff" opacity="0.95"/>
<circle cx="770" cy="534" r="34" fill="#e0aaff" opacity="0.20"/>
<circle cx="770" cy="534" r="21" fill="#e0aaff" opacity="0.45"/>
<circle cx="770" cy="534" r="12" fill="#e0aaff" opacity="1"/>
<circle cx="770" cy="534" r="5.5" fill="#ffffff" opacity="0.95"/>
<circle cx="770" cy="640" r="34" fill="#e0aaff" opacity="0.20"/>
<circle cx="770" cy="640" r="21" fill="#e0aaff" opacity="0.45"/>
<circle cx="770" cy="640" r="12" fill="#e0aaff" opacity="1"/>
<circle cx="770" cy="640" r="5.5" fill="#ffffff" opacity="0.95"/>
<circle cx="1060" cy="110" r="34" fill="#67e8f9" opacity="0.20"/>
<circle cx="1060" cy="110" r="21" fill="#67e8f9" opacity="0.45"/>
<circle cx="1060" cy="110" r="12" fill="#67e8f9" opacity="1"/>
<circle cx="1060" cy="110" r="5.5" fill="#ffffff" opacity="0.95"/>
<circle cx="1060" cy="375" r="34" fill="#67e8f9" opacity="0.20"/>
<circle cx="1060" cy="375" r="21" fill="#67e8f9" opacity="0.45"/>
<circle cx="1060" cy="375" r="12" fill="#67e8f9" opacity="1"/>
<circle cx="1060" cy="375" r="5.5" fill="#ffffff" opacity="0.95"/>
<circle cx="1060" cy="640" r="34" fill="#67e8f9" opacity="0.20"/>
<circle cx="1060" cy="640" r="21" fill="#67e8f9" opacity="0.45"/>
<circle cx="1060" cy="640" r="12" fill="#67e8f9" opacity="1"/>
<circle cx="1060" cy="640" r="5.5" fill="#ffffff" opacity="0.95"/>
</svg>
