<?xml version="1.0" encoding="utf-8"?>
<!-- Generator: Adobe Illustrator 28.1.0, SVG Export Plug-In . SVG Version: 6.00 Build 0)  -->
<svg version="1.1" id="Warstwa_1" xmlns="http://www.w3.org/2000/svg" xmlns:xlink="http://www.w3.org/1999/xlink" x="0px" y="0px"
	 viewBox="0 0 3369.2 2016.7" style="enable-background:new 0 0 3369.2 2016.7;" xml:space="preserve">
<style type="text/css">
	
		.st0{clip-path:url(#SVGID_00000106837338186398962980000005855071153525996733_);fill-rule:evenodd;clip-rule:evenodd;fill:#0D7DC0;}
	.st1{clip-path:url(#SVGID_00000106837338186398962980000005855071153525996733_);fill:#067ABE;}
	.st2{clip-path:url(#SVGID_00000106837338186398962980000005855071153525996733_);fill:#0279BE;}
</style>
<g>
	<defs>
		<rect id="SVGID_1_" x="383.3" y="421.1" width="2602.7" height="1174.5"/>
	</defs>
	<clipPath id="SVGID_00000142136216700221670220000008679890703564155573_">
		<use xlink:href="#SVGID_1_"  style="overflow:visible;"/>
	</clipPath>
	
		<path style="clip-path:url(#SVGID_00000142136216700221670220000008679890703564155573_);fill-rule:evenodd;clip-rule:evenodd;fill:#0D7DC0;" d="
		M684.6,1371.8h21.3v-0.9c-6.2,0-7.1-1.8-7.1-8v-11.5c0-0.9,0-0.9,0.9-0.9h0.9c5.3,0,9.8,0,14.2-1.8c4.4-1.8,7.1-6.2,7.1-11.5
		c0-8-5.3-12.4-16.8-12.4h-20.4v0.9c5.3,0.9,6.2,1.8,6.2,6.2v31c0,6.2-0.9,8-6.2,8V1371.8z M698.8,1346.1V1331c0-2.7,0-3.5,3.5-3.5
		c8,0,11.5,2.7,11.5,9.8c0,7.1-4.4,10.6-12.4,10.6C698.8,1347.9,698.8,1347.9,698.8,1346.1 M725.4,1348.8c0,15.1,9.8,23.9,24.8,23.9
		c14.2,0,24.8-8.9,24.8-23.9c0-16-10.6-24.8-24.8-24.8C735.2,1324,725.4,1332.8,725.4,1348.8 M733.4,1348.8
		c0-14.2,6.2-23.1,16.8-23.1c9.8,0,16,8.9,16,23.1c0,13.3-6.2,22.2-16,22.2C739.6,1370.9,733.4,1362.1,733.4,1348.8 M775.9,1371.8
		h39.9l3.5-12.4h-1.8c-2.7,7.1-7.1,9.8-14.2,9.8h-8c-4.4,0-4.4-0.9-4.4-4.4v-31.9c0-5.3,1.8-7.1,6.2-7.1h0.9v-0.9h-22.2v0.9
		c6.2,0,7.1,1.8,7.1,7.1v31c0,5.3-0.9,7.1-6.2,7.1h-0.9V1371.8z M825.6,1372.7h1.8c0-0.9,0.9-0.9,1.8-0.9c1.8,0,5.3,0.9,10.6,0.9
		c9.7,0,15.1-4.4,15.1-12.4c0-6.2-2.7-9.8-8.9-13.3l-8-5.3c-4.4-2.7-7.1-5.3-7.1-8.9c0-3.5,3.5-7.1,8-7.1c5.3,0,9.8,4.4,13.3,12.4
		h0.9l-1.8-14.2h-0.9c0,0.9-0.9,1.8-1.8,1.8c-1.8,0-5.3-1.8-9.8-1.8c-8.9,0-14.2,5.3-14.2,11.5c0,6.2,2.7,9.8,8.9,13.3l7.1,4.4
		c5.3,2.7,7.1,5.3,7.1,8.9c0,5.3-3.5,8.9-8.9,8.9s-10.6-4.4-14.2-13.3h-1.8L825.6,1372.7z M856.6,1371.8h21.3v-0.9
		c-5.3,0-6.2-1.8-6.2-6.2v-15.1c0.9,0,1.8,0,1.8,0.9l15.1,15.1c1.8,1.8,1.8,2.7,1.8,3.5c0,0.9-0.9,1.8-5.3,1.8v0.9h22.2v-0.9
		c-2.7,0-4.4-1.8-7.1-4.4l-21.3-21.3l13.3-13.3c3.5-4.4,7.1-6.2,11.5-6.2v-0.9H885v0.9c3.5,0,4.4,0.9,4.4,2.7c0,0.9-0.9,2.7-3.6,6.2
		l-12.4,11.5c-0.9,0.9-0.9,1.8-1.8,1.8v-15.1c0-5.3,0.9-7.1,6.2-7.1v-0.9h-21.3v0.9c6.2,0,7.1,1.8,7.1,7.1v31.9
		c0,4.4-1.8,6.2-6.2,6.2h-0.9V1371.8z M909.8,1371.8h16v-0.9h-0.9c-3.5,0-4.4-0.9-4.4-2.7c0-0.9,0-2.7,0.9-4.4l3.5-7.1h20.4l3.5,8.9
		c0.9,0.9,0.9,1.8,0.9,1.8c0,2.7-1.8,3.5-5.3,3.5v0.9h19.5v-0.9c-1.8,0-2.7,0-3.5-0.9c-0.9-0.9-1.8-2.7-3.5-4.4l-18.6-41.7h-1.8
		l-19.5,40.8c-1.8,4.4-3.5,6.2-7.1,6.2V1371.8z M925.8,1354.1l9.8-20.4l8,20.4H925.8z M979.9,1371.8h16v-0.9c-3.5,0-5.3-0.9-5.3-2.7
		c0-0.9,0-2.7,0.9-4.4l3.5-7.1h20.4l3.5,8.9c0.9,0.9,0.9,1.8,0.9,1.8c0,2.7-1.8,3.5-5.3,3.5v0.9h19.5v-0.9c-1.8,0-2.7,0-3.5-0.9
		c-0.9-0.9-1.8-2.7-2.7-4.4l-19.5-41.7h-1.8l-19.5,40.8c-1.8,4.4-3.5,6.2-7.1,6.2V1371.8z M995.8,1354.1l9.8-20.4l8.9,20.4H995.8z
		 M1035.7,1371.8h21.3v-0.9c-6.2,0-7.1-1.8-7.1-6.2v-15.1h0.9c0.9,0,0.9,0,1.8,0.9l15.1,15.1c0.9,1.8,1.8,2.7,1.8,3.5
		c0,0.9-1.8,1.8-5.3,1.8v0.9h22.2v-0.9c-2.7,0-5.3-1.8-8-4.4l-20.4-21.3l12.4-13.3c4.4-4.4,8-6.2,11.5-6.2v-0.9h-18.6v0.9
		c3.5,0,5.3,0.9,5.3,2.7c0,0.9-1.8,2.7-4.4,6.2l-11.5,11.5c-0.9,0.9-1.8,1.8-2.7,1.8v-15.1c0-5.3,0.9-7.1,7.1-7.1v-0.9h-21.3v0.9
		c5.3,0,6.2,1.8,6.2,7.1v31.9c0,4.4-0.9,6.2-6.2,6.2V1371.8z M1087.2,1371.8h16v-0.9h-0.9c-3.5,0-5.3-0.9-5.3-2.7
		c0-0.9,0.9-2.7,1.8-4.4l3.5-7.1h20.4l3.5,8.9c0,0.9,0.9,1.8,0.9,1.8c0,2.7-1.8,3.5-5.3,3.5v0.9h19.5v-0.9c-1.8,0-2.7,0-3.5-0.9
		c-0.9-0.9-2.7-2.7-3.6-4.4l-18.6-41.7h-1.8l-19.5,40.8c-1.8,4.4-3.6,6.2-7.1,6.2V1371.8z M1103.1,1354.1l8.9-20.4l8.9,20.4H1103.1z
		 M1142.1,1371.8h20.4c8.9,0,15.1,0,20.4-4.4c7.1-4.4,9.7-11.5,9.7-19.5c0-14.2-9.7-23-27.5-23h-23.1v0.9c5.3,0,7.1,1.8,7.1,7.1
		v31.9c0,4.4-1.8,6.2-7.1,6.2V1371.8z M1157.2,1363.9v-31c0-4.4,0-5.3,4.4-5.3c15.1,0,23.1,7.1,23.1,21.3c0,13.3-8,21.3-22.2,21.3
		C1157.2,1370.1,1157.2,1369.2,1157.2,1363.9 M1192.7,1371.8v-0.9c5.3,0,6.2-1.8,6.2-6.2v-31.9c0-5.3-0.9-6.2-6.2-7.1v-0.9h40.8
		v10.6h-0.9c-1.8-7.1-3.5-8-10.6-8h-11.5c-3.6,0-3.6,0.9-3.6,3.5v12.4c0,1.8,0,2.7,2.7,2.7h8.9c7.1,0,8.9-0.9,9.8-7.1h0.9v16.8h-0.9
		c-0.9-6.2-2.7-7.1-9.8-7.1h-9.7c-1.8,0-1.8,0-1.8,1.8v14.2c0,3.5,0.9,4.4,3.6,4.4h10.6c8.9,0,12.4-1.8,15.1-8.9h1.8l-3.6,11.5
		H1192.7z M1241.4,1371.8h16v-0.9c-5.3,0-6.2-1.8-6.2-8v-30.1l17.7,39h1.8l17.7-39v31c0,5.3-0.9,7.1-7.1,7.1v0.9h21.3v-0.9
		c-6.2-0.9-7.1-1.8-7.1-7.1v-31c0-5.3,0.9-7.1,7.1-7.1v-0.9h-14.2l-16.9,36.3l-16.8-36.3h-13.3v0.9c5.3,0.9,6.2,2.7,6.2,8v29.3
		c0,5.3-1.8,8-6.2,8V1371.8z M1306.2,1371.8h22.2v-0.9c-6.2,0-7.1-1.8-7.1-6.2v-31.9c0-5.3,0.9-6.2,7.1-7.1v-0.9h-22.2v0.9
		c5.3,0,7.1,1.8,7.1,7.1v31.9c0,4.4-0.9,6.2-7.1,6.2V1371.8z M1330.1,1371.8h16v-0.9h-0.9c-3.5,0-5.3-0.9-5.3-2.7
		c0-0.9,0.9-2.7,0.9-4.4l3.5-7.1h20.4l4.4,8.9v1.8c0,2.7-0.9,3.5-5.3,3.5v0.9h20.4v-0.9c-1.8,0-2.7,0-4.4-0.9
		c-0.9-0.9-1.8-2.7-2.7-4.4l-18.6-41.7h-1.8l-19.5,40.8c-1.8,4.4-3.5,6.2-7.1,6.2V1371.8z M1346.1,1354.1l8.9-20.4l8.9,20.4H1346.1z
		 M1415.2,1363.9v-30.1l31.9,38.1h1.8v-39c0-5.3,0.9-6.2,6.2-7.1v-0.9h-16.8v0.9c6.2,0.9,7.1,1.8,7.1,7.1v25.7l-28.4-33.7h-12.4v0.9
		c3.5,0.9,5.3,1.8,7.1,5.3v32.8c0,5.3-0.9,6.2-7.1,7.1v0.9h17.7v-0.9C1416.1,1370.1,1415.2,1369.2,1415.2,1363.9 M1453.4,1371.8
		v-0.9c3.5,0,5.3-1.8,7.1-6.2l19.5-40.8h1.8l18.6,41.7c0.9,1.8,1.8,3.5,2.7,4.4c1.8,0.9,2.7,0.9,4.4,0.9v0.9H1487v-0.9
		c4.4,0,5.3-0.9,5.3-3.5v-1.8l-4.4-8.9h-20.4l-3.6,7.1c0,1.8-0.9,3.5-0.9,4.4c0,1.8,1.8,2.7,5.3,2.7h0.9v0.9H1453.4z M1469.3,1354.1
		h17.7l-8.9-20.4L1469.3,1354.1z M1503.9,1325.7c6.2,0,7.1,2.7,7.1,10.6v17.7c0,6.2,1.8,10.6,4.4,14.2c3.6,3.5,8.9,4.4,16,4.4
		c13.3,0,19.5-6.2,19.5-19.5v-19.5c0-5.3,1.8-8,7.1-8v-0.9h-16.8v0.9c5.3,0,6.2,1.8,6.2,8v20.4c0,10.6-5.3,16-15.1,16
		c-8.9,0-13.3-5.3-13.3-16v-20.4c0-6.2,0.9-8,6.2-8v-0.9h-21.3V1325.7z M1560.6,1371.8h21.3v-0.9c-5.3,0-6.2-1.8-6.2-6.2v-15.1
		c1.8,0,1.8,0,2.7,0.9l15.1,15.1c0.9,1.8,1.8,2.7,1.8,3.5c0,0.9-1.8,1.8-5.3,1.8v0.9h22.2v-0.9c-2.7,0-5.3-1.8-8-4.4l-21.3-21.3
		l13.3-13.3c4.4-4.4,7.1-6.2,11.5-6.2v-0.9H1589v0.9c3.5,0,5.3,0.9,5.3,2.7c0,0.9-1.8,2.7-4.4,6.2l-12.4,11.5c0,0.9-0.9,1.8-1.8,1.8
		v-15.1c0-5.3,0.9-7.1,7.1-7.1v-0.9h-22.2v0.9c6.2,0,7.1,1.8,7.1,7.1v31.9c0,4.4-1.8,6.2-6.2,6.2h-0.9V1371.8z"/>
	
		<path style="clip-path:url(#SVGID_00000142136216700221670220000008679890703564155573_);fill-rule:evenodd;clip-rule:evenodd;fill:#0D7DC0;" d="
		M688.8,964.2h143.4v-9.1c-41.2-0.8-47.8-9.9-47.8-52.7v-75c0-8.2,1.6-9.1,8.2-9.1h4.9c36.3,0,66.7-0.8,93.1-11.5
		c31.3-12.4,51.1-42,51.1-79.1c0-53.6-38.7-83.2-113.7-83.2H688.8v9.9c39.6,1.6,44.5,9.9,44.5,40.4v207.7c0,42-5.8,52.7-44.5,52.7
		V964.2z M784.4,787.1V689c0-19.8,3.3-27.2,27.2-27.2c51.1,0,77.5,23.1,77.5,68.4c0,46.1-29.7,71.7-86.5,71.7
		C788.6,801.9,784.4,798.6,784.4,787.1"/>
	
		<path style="clip-path:url(#SVGID_00000142136216700221670220000008679890703564155573_);fill-rule:evenodd;clip-rule:evenodd;fill:#0D7DC0;" d="
		M1143.9,851.4l27.2,68.2c1.7,4.9,2.5,9.7,2.5,13.8c0,15.4-9.1,20.3-31.3,21.1v8.9h119.5v-8.9c-10.7,0-17.3-1.6-23.9-7.3
		c-5.8-5.7-11.5-14.6-17.3-28.4l-112.9-274.3h-9.9L979.9,913.9c-12.4,27.6-21.4,39.8-42,40.6v8.9h93.9v-8.9h-2.5
		c-21.4,0-31.3-6.5-31.3-19.5c0-5.7,1.6-13.8,6.6-25.1l23.9-58.4l60.2-141.2L1143.9,851.4z"/>
	
		<path style="clip-path:url(#SVGID_00000142136216700221670220000008679890703564155573_);fill-rule:evenodd;clip-rule:evenodd;fill:#0D7DC0;" d="
		M1356.5,910.2V706.6l199.4,257.1h9.1V697.5c0-32.1,4.1-40.4,42.8-43.7V644h-106.3v9.9c37.9,3.3,42,11.5,42,43.7v173.9L1368.9,644
		H1293v9.9c19.8,1.6,32.1,12.4,42.9,33v223.3c0,32.1-4.9,40.4-42.9,43.7v9.9h105.5v-9.9C1360.6,950.5,1356.5,942.3,1356.5,910.2"/>
	
		<path style="clip-path:url(#SVGID_00000142136216700221670220000008679890703564155573_);fill-rule:evenodd;clip-rule:evenodd;fill:#0D7DC0;" d="
		M1467.2,1070.5c-42.7,5.7-88.3,22.5-126.4,39.1c-40.5,17.6-93.4,41.8-149.6,66.7c59,36.4,117.5,68.7,174.3,85.8
		c68.1,20.6,133.8,19.4,194.9-22.6c23.5-21.4,35.9-43.5,37.9-66.2c1.8-19.9-4.2-40.7-18.1-61.9
		C1554.3,1072,1511.5,1064.6,1467.2,1070.5 M779.6,1261.9c6.4,1.9,12.8,3.3,19,4.4c33.7,5.9,65,1.5,98-3.8
		c69.5-14.4,135.7-54.7,195.4-82.2c17.1-7.9,33.8-15.7,50.1-23.3c-87.1-46.3-147.2-93-184-137.2c-42.3-50.9-53.9-98.9-40.3-139.9
		c4.1-12.4,9.6-23.4,16.3-33c15.1-21.6,36.5-35.8,62.3-41.9c25.5-6,55.4-4,88,6.8c25.5,8.5,52.8,22.5,80.8,42.3
		c2.1,1.5,2.6,4.4,1.1,6.5c-1.5,2.1-4.4,2.6-6.5,1.1c-27.3-19.3-53.7-32.9-78.4-41.1c-30.9-10.3-59.1-12.2-83-6.6
		c-23.6,5.6-43,18.6-56.8,38.2c-6.2,8.9-11.3,19.1-15.1,30.5c-12.6,38-1.3,82.9,38.7,131.1c36.9,44.4,98.1,91.4,187.4,138.2l0,0
		c68.4-31.9,129.9-60.6,186.9-79.9c46-15.6,93.5-23.2,136-19.2c38.7,3.7,88,16.4,110.9,50.9c5.3,7.9,9.6,15.8,12.9,23.5
		c6.8,15.8,9.6,31.4,8.2,46.7c-2.3,25.1-15.7,49.2-41,72.3c-0.2,0.2-0.4,0.4-0.7,0.6c-63.9,44.1-132.3,45.5-203,24.1
		c-59.5-18-120.5-52.1-181.9-90.2c-97.8,43-204.1,86.8-272.7,100.1c-32,6.2-78.6,6.3-119.3-4.6c-54.6-14.6-95.8-44.6-99.8-103.4
		c-1.4-20,3.2-40,14.1-59c12.9-22.8,27.8-37,46-45.7c17.9-8.6,38.8-11.7,63.7-12c35.2-0.5,72.3,7.3,110.6,20.5
		c38.1,13.1,77.4,31.6,117.3,52.4c2.3,1.2,3.2,4,2,6.3c-1.2,2.3-4,3.2-6.2,2c-39.5-20.6-78.5-38.9-116-51.8
		c-37.4-12.9-73.5-20.6-107.5-20.1c-23.7,0.3-43.3,3.1-59.9,11.1c-16.4,7.9-30,21-41.9,41.9c-9.9,17.4-14.1,35.5-12.9,53.8
		C701.8,1222.7,733,1248.3,779.6,1261.9"/>
	<path style="clip-path:url(#SVGID_00000142136216700221670220000008679890703564155573_);fill:#067ABE;" d="M2326,704v11.7
		c-172.4,334.1-222.7,489.5-251.5,606.3h-105.1l-1.8-10.8l301.8-542.5h-188.6c-92.5,0-119.4,18.9-149.1,83.5h-12.6
		c7.2-52.1,14.4-100.6,22.5-148.2C2076.4,706.7,2190.4,706.7,2326,704"/>
	<path style="clip-path:url(#SVGID_00000142136216700221670220000008679890703564155573_);fill:#067ABE;" d="M2680.7,1032.2
		c0,96.5-66.7,161.1-170.2,161.1c-48.6,0-96.5-14.6-125-36.1c-1.4-31.3-2.8-65.3-2.1-101.4h10.4c19.4,70.1,56.3,123.6,116,123.6
		c52.1,0,100-43.8,100-143.8c0-91-39.6-143.8-102.8-143.8c-39.6,0-75.7,19.4-97.2,59.7H2398l6.9-243.8h169.5
		c39.6,0,66-4.9,79.9-27.1h9c-4.2,25.7-9,52.8-14.6,77.1h-226.4l-4.2,155.6c22.9-25,58.3-39.6,102.8-39.6
		C2609.2,873.8,2680.7,931.5,2680.7,1032.2"/>
	<path style="clip-path:url(#SVGID_00000142136216700221670220000008679890703564155573_);fill:#0279BE;" d="M2133.6,1317.8
		c8.3-1.6,14.5-5.3,14.5-14.4v-49.9c0-8.2-3.8-10.4-14.5-10.4v-1.7c8.2-1.4,17-3.8,23.5-6.1v68.1c0,9,2.9,12.6,13.8,14.4v1.7
		c-6.5-0.4-12.8-0.5-18.9-0.5c-6.1,0-12.1,0.1-18.4,0.5V1317.8z"/>
	<path style="clip-path:url(#SVGID_00000142136216700221670220000008679890703564155573_);fill:#0279BE;" d="M2236.8,1276.1
		c0,29.2-13.4,45-30.8,45c-8,0-16.7-3.1-20.4-6c-0.6-5.2-0.5-11.9-0.4-17.9h1.7c4.1,11.9,9.8,21.3,19.4,21.3
		c13.4,0,19.4-17.2,19.4-37.7v-3c-4.8,6.1-12.2,10-20.6,10c-13.9,0-25.1-10.8-25.1-26.3c0-15.7,11.6-26,27.2-26
		C2224.8,1235.6,2236.8,1248.5,2236.8,1276.1 M2225.4,1260.9c0-14.5-7.7-22.9-17.5-22.9c-9.7,0-16.7,8.3-16.7,22.9
		c0,14.9,7.1,23.6,16.4,23.6C2216.5,1284.5,2225.4,1276.5,2225.4,1260.9"/>
	<path style="clip-path:url(#SVGID_00000142136216700221670220000008679890703564155573_);fill:#0279BE;" d="M2302.2,1293.1
		c0,16.7-11.5,27.8-29.4,27.8c-8.4,0-16.7-2.5-21.6-6.2c-0.2-5.4-0.5-11.3-0.4-17.5h1.8c3.4,12.1,9.7,21.3,20,21.3
		c9,0,17.3-7.6,17.3-24.8c0-15.7-6.8-24.8-17.8-24.8c-6.8,0-13.1,3.4-16.8,10.3h-2l1.2-42.1h29.3c6.8,0,11.4-0.8,13.8-4.7h1.6
		c-0.7,4.4-1.6,9.1-2.5,13.3h-39.1l-0.7,26.9c4-4.3,10.1-6.8,17.8-6.8C2289.9,1265.8,2302.2,1275.7,2302.2,1293.1"/>
	<path style="clip-path:url(#SVGID_00000142136216700221670220000008679890703564155573_);fill:#0279BE;" d="M2314.2,1317.8
		c8.3-1.6,14.5-5.3,14.5-14.4v-49.9c0-8.2-3.8-10.4-14.5-10.4v-1.7c8.2-1.4,17-3.8,23.5-6.1v68.1c0,9,2.9,12.6,13.8,14.4v1.7
		c-6.5-0.4-12.8-0.5-18.9-0.5c-6.1,0-12.1,0.1-18.4,0.5V1317.8z"/>
	
		<rect x="2355" y="1284.6" style="clip-path:url(#SVGID_00000142136216700221670220000008679890703564155573_);fill:#0279BE;" width="54.6" height="3.7"/>
	<path style="clip-path:url(#SVGID_00000142136216700221670220000008679890703564155573_);fill:#0279BE;" d="M2467.9,1297.2
		c-0.2,6.7-0.8,15-1.6,22.3c-8.2-0.2-18-0.4-27.2-0.4c-9.7,0-16.9,0.1-25.8,0.4v-1.7l25.4-30.1c7.2-8.5,15.1-18.7,15.1-31.9
		c0-11-5.3-17.9-13.3-17.9c-9.8,0-17,10.9-21,23h-1.8c-0.1-2.9-0.2-6.2-0.2-9.1c0-3,0.1-5.4,0.1-7.8c4.8-5.2,13.3-8.5,22.6-8.5
		c13.9,0,26,7.6,26,20.4c0,12.1-10.9,23.1-21.7,33.3l-22,21.6c3.4,0,9.1,0.1,16.3,0.1c4,0,8.6,0,12.1-0.2
		c8.4-0.5,11.6-2.6,15.4-13.5H2467.9z"/>
	<path style="clip-path:url(#SVGID_00000142136216700221670220000008679890703564155573_);fill:#0279BE;" d="M2482.8,1278.3
		c0-26.3,14.3-42.7,31.4-42.7c17,0,31.5,16.4,31.5,42.7c0,26.5-14.5,42.8-31.5,42.8C2497.1,1321.1,2482.8,1304.8,2482.8,1278.3
		 M2533.8,1278.3c0-28.1-7.8-40.1-19.4-40.1c-11.7,0-19.7,12.1-19.7,40.1c0,28.1,7.9,40.2,19.7,40.2
		C2525.9,1318.4,2533.8,1306.3,2533.8,1278.3"/>
	<path style="clip-path:url(#SVGID_00000142136216700221670220000008679890703564155573_);fill:#0279BE;" d="M2608.4,1297.2
		c-0.2,6.7-0.8,15-1.6,22.3c-8.2-0.2-18-0.4-27.2-0.4c-9.7,0-16.9,0.1-25.8,0.4v-1.7l25.4-30.1c7.2-8.5,15.1-18.7,15.1-31.9
		c0-11-5.3-17.9-13.3-17.9c-9.8,0-17,10.9-21,23h-1.8c-0.1-2.9-0.2-6.2-0.2-9.1c0-3,0.1-5.4,0.1-7.8c4.8-5.2,13.3-8.5,22.6-8.5
		c13.9,0,26,7.6,26,20.4c0,12.1-10.9,23.1-21.7,33.3l-22,21.6c3.4,0,9.1,0.1,16.3,0.1c4,0,8.6,0,12.1-0.2
		c8.4-0.5,11.6-2.6,15.4-13.5H2608.4z"/>
	<path style="clip-path:url(#SVGID_00000142136216700221670220000008679890703564155573_);fill:#0279BE;" d="M2680.7,1293.8
		c0,15.2-11,27.2-28.7,27.2c-20.3,0-28.8-15.5-28.8-39.8c0-32.9,14.9-45.7,31.4-45.7c8,0,16.4,3,21,6.6c0.4,5.6,0.5,11,0.2,16.8
		h-1.7c-4.4-13.2-11.8-21-20.9-21c-13.1,0-19.1,15.5-19.3,43.3c3.5-7.4,10.4-12.5,20.6-12.5
		C2668.5,1268.8,2680.7,1277.8,2680.7,1293.8 M2669.2,1295.3c0-15.2-7.4-23.3-17.4-23.3c-10.1,0-17.5,8.3-17.5,23
		c0,14.6,7.3,23.7,17.8,23.7C2662.4,1318.8,2669.2,1309.9,2669.2,1295.3"/>
</g>
</svg>
